<svg version="1" xmlns="http://www.w3.org/2000/svg" width="494.667" height="494.667" viewBox="0 0 371.000000 371.000000"><path d="M229.7 16.5c-5.3 2-10.8 6.2-15.4 11.8-3.7 4.4-5 6.6-10.8 17.2-3.7 7-9.7 24.3-11.2 32.5-.2 1.4-.9 4.5-1.4 6.9-1.2 5.4-2.3 22.8-2.2 34.1.1 10.8 1 18.2 3.8 32.2l2.3 11.3.2-8c.1-4.4.3-9.6.5-11.5 1.3-14.3 1.9-18.7 3.1-24 .3-1.4.8-3.6 1.1-5 .9-5.3 6.4-20.2 9.9-27.2C216 74 220.1 69 231 60c17.7-14.4 25.2-26.8 21.5-35.5-3.4-8-13.3-11.4-22.8-8zM186.3 28.8c-1.6 1.1-2.2 3.9-2.8 13.7-.3 4.9-.8 12.1-1 16-.9 11.8-1.4 19.4-2.1 33.5-.3 7.4-.9 13.9-1.2 14.5-.3.7-.2.7.5 0 .6-.6 1.7-4.6 2.6-9 .9-4.4 4.4-20.1 7.7-35 3.4-14.8 5.8-28 5.5-29.2-.8-3.2-6.7-6.1-9.2-4.5zM74.4 48c-4.4 1.4-9.8 7-11.2 11.7-3.6 12.2 1 26.8 14.4 45.3 13.2 18.3 37.2 38.1 58.3 48.2 7 3.3 31.6 12.8 33.3 12.8.6 0-.6-1.1-2.6-2.5s-3.9-2.5-4.2-2.5c-.3 0-3.8-2.2-7.9-5-30.4-20.5-51.5-48.3-53.8-70.5-1.5-15.2-8.2-31.6-14.5-36.1C83.6 47.6 78 47 74.4 48zM110.8 48.2c-1.9.7-2.8 1.7-2.8 3.1 0 1.9 33 70 33.6 69.4.3-.2-7.8-26.4-18-58.9-4.5-14.1-6.2-15.9-12.8-13.6zM255.7 59.2c-10.3 14.8-38.1 57.4-36 55.3 1.1-1.2 12.6-13.6 20.3-22.1 3-3.3 10.1-10.9 15.6-17 15.1-16.2 15.2-16.4 14.3-19.7-1.1-3.9-2.8-5.7-5.5-5.7-1.8 0-3.7 2.1-8.7 9.2zM155.9 91.7c-.9.2-2.6 2.2-3.9 4.5-2 3.6-2.2 4.9-1.7 11.9 1.3 16.7 10 32.1 27.2 47.9l3.8 3.5-4-6c-11.7-17.4-15-30.3-11.7-45.5 2.1-9.8-.3-17.1-5.4-16.9-1.5.1-3.4.3-4.3.6zM54.8 102.1c-2.4 1.4-3.9 4.4-3.2 6.4.5 1.3 56.7 39.4 63.4 43 1.6.8-.5-1.2-17-16.4-5.7-5.3-11.1-10.3-12-11.1-.9-.8-6.3-5.8-12-11-5.8-5.2-11.1-10.1-11.8-10.8-1.6-1.4-5-1.5-7.4-.1zM312 109.4c-10 4.5-62 30.6-62 31.1 0 .3 2.4-.4 5.3-1.4 2.8-1 9.7-3.2 15.2-4.9 23.8-7.3 49.1-15.3 50.5-16.1 2.6-1.4 3.6-5.9 2-8.8-.8-1.5-1.9-2.8-2.5-2.9-.5-.2-4.4 1.2-8.5 3zM241.6 111.5c-12.9 4.5-27.8 23.9-32.5 42.6-3.3 13.2-3.2 13.5 1.1 5.1 9-17.4 17-25.2 30.6-30.1 11.5-4.1 15-7.4 14.2-13.1-.2-1.6-3.8-5-5.4-5.1-.6 0-1.8-.2-2.7-.4-.8-.1-3.2.3-5.3 1zM315.4 130.1c-19.7 1.5-38.4 6.8-57.9 16.6-15.6 7.8-28 16.5-44 30.8l-4 3.6 4-2.2c24.4-13.2 42.7-19.7 62-22.2 17.5-2.3 25.1-1.6 40 3.8 5.5 2 10.7 3.8 11.5 4 .8.2 3.3.8 5.5 1.4 5.2 1.4 14 1.7 18.7.8 2.3-.5 4.8-2 6.7-4.3 2.7-3 3.1-4.2 3.1-9.2 0-12.5-10.7-21.3-27.7-22.8-3.8-.3-7.2-.6-7.8-.8-.5-.1-5.1.1-10.1.5zM93.1 159.8c-5.2 4.1-1.3 13.4 7.4 17.6 15.2 7.4 34.6 7.8 55.5 1.2 4.4-1.4 4.4-1.4-6.5-1.3-12.4.1-16.8-.4-24-2.8-6.8-2.3-7.6-2.8-14-8.4-9-7.9-14.3-9.7-18.4-6.3zM34.3 176c-3.8 1.5-5.7 7.6-3 9.8.6.5 3.9 1.3 7.2 1.6 5.5.5 10 .8 29.5 2.1 3.6.2 12.4.7 19.5 1.1 7.2.3 14 .7 15.3.9 1.2.2 2.2 0 2.2-.4 0-.5-3.5-1.5-7.7-2.4-4.3-.9-10.7-2.3-14.3-3.1-22-4.8-43.7-9.7-45-10.1-.8-.2-2.5 0-3.7.5zM265 178.3c.4.4 36.9 8.8 53 12.2.8.2 5.4 1.2 10.1 2.3 9 2 10.9 1.7 13.6-1.7 1.4-1.8 1.6-5 .5-6.8-.8-1.3-5.1-1.9-18.7-2.8-4.9-.3-12.1-.7-16-1-3.8-.3-11.5-.7-17-1-5.5-.3-13.6-.8-18-1.1-4.4-.3-7.8-.3-7.5-.1zM235.5 187c-5.4.6-22.5 4.8-22.5 5.5 0 .2 4.6.2 10.3 0 17.5-.5 28.2 2.6 37.5 10.7 10.7 9.5 18 11 20.8 4.2 1.4-3.3 1.3-3.8-.8-7.5-5.2-9.4-25.4-15.1-45.3-12.9zM160.5 189.9c-.6.5-4.8 2.9-9.5 5.4-18.8 10-38.3 16.4-56 18.3-15.4 1.6-25.9.5-36.9-4-14.3-5.8-29.4-8.5-36.6-6.5-4.6 1.3-8.8 6.2-9.5 11.1-1.6 11.3 7.5 21.2 22.6 24.6 7.1 1.6 25.3 1.2 36.9-.8 29.4-5 57-18.8 82.9-41.4 3.2-2.8 6.6-5.6 7.5-6.3.9-.7 1.1-1.3.6-1.3-.6 0-1.5.4-2 .9zM106.8 191.7c.7.3 1.6.2 1.9-.1.4-.3-.2-.6-1.3-.5-1.1 0-1.4.3-.6.6zM164.4 207.2c-5.2 12-14.9 24.6-22.4 29.3-1.9 1.2-6 3-9 4-8.3 2.6-13.1 5.7-14.5 8.9-3.4 7.9 6.6 12.7 16.2 7.7 10-5.1 23.4-22.5 27.5-35.6 1.7-5.6 4.7-17.9 4.4-18.2-.1-.2-1.1 1.6-2.2 3.9zM202 203.5c0 .2 1.5 1.2 3.3 2.1 5.3 2.8 21.8 14 27.2 18.5 8.8 7.4 20.2 19.5 25.5 27.1 8.9 12.5 12.8 21.9 14.4 34.3 1.5 11.9 6.3 25.7 10.7 31.3 6.8 8.6 18.6 7 25.4-3.3 2.9-4.4 2.8-18.9-.3-26.6-11.4-28.5-44.2-59.1-79.8-74.2-6.7-2.8-26.4-9.7-26.4-9.2zM178 214c-.2 11.2-1.6 27.5-2.5 31-.2.8-.7 3.1-1 5-1.9 11.5-9.2 30.9-15.5 41.4-3.8 6.2-9.6 12.6-16.5 18.1-11.5 9.1-20 19.2-22 26-2.4 7.9-.1 13.3 7.6 17.3 8.5 4.4 17.9 1.5 27.9-8.7 9.1-9.3 17.2-24.9 22.5-43.6 7.6-26.3 7.8-60.3.6-89.5-.8-3.2-.9-2.9-1.1 3zM196.2 217.1c5 7.2 8.2 13.7 10.7 21.9 2.3 7.3 2.5 13 .8 21.6-2.2 11.1-.9 16.8 4 18 8.6 2.2 13.9-10.7 9.9-23.9-.8-2.6-1.2-4.7-1-4.7.2 0-1-2.9-2.6-6.5-4.9-10.9-12.1-20.5-21.9-29.1l-4.5-3.9 4.6 6.6zM259.5 220.5c1.7 1.6 8 7.4 14 12.9 6.1 5.5 11.5 10.5 12 11 .9.9 18.6 17.2 24.9 22.8 2.4 2.2 3.9 2.2 7.5.3 4.9-2.5 5-5.7.3-9.2-6.2-4.6-51.5-34.6-57.7-38.2l-4-2.4 3 2.8zM117.9 230.5c-.3.2-15.1 5-32.9 10.5-35.4 11-36.6 11.7-35.6 17.9.3 1.8.7 3.6 1 3.8 1.7 1.7 8.5-1 35.7-14.6 34.5-17.2 36-18 33.8-18.1-.9 0-1.8.2-2 .5zM231.2 250c.7 2.1 2.8 8.8 8.7 27.5 2.7 8.8 6.8 21.9 9.1 29.2 2.3 7.2 4.7 13.7 5.5 14.3 1.9 1.6 7.1 1.6 9 0 1.7-1.4 1.9-4.2.5-6.8-.5-.9-8-15.9-16.6-33.2-14.2-28.6-17.7-35.3-16.2-31zM150.1 258.7c-1.7 2-7.7 8.6-13.3 14.7-5.7 6.1-12.3 13.3-14.8 16-2.5 2.7-7.8 8.4-11.7 12.5-5.4 5.7-7.3 8.3-7.3 10.4 0 3.9 2.7 7.7 5.6 7.7 1.9 0 5.3-4.5 20.2-26.8 19.4-29 25.4-38.2 24.8-38.2-.2 0-1.7 1.6-3.5 3.7zM187.1 288.8c-2.9 13-6.4 28.6-7.7 34.7-1.4 6-2.2 12-1.9 13.3.8 3.2 6.3 5.5 8.9 3.8 2.2-1.4 2.1-1 3-13.6.4-5.2.9-11.8 1.1-14.5.2-2.8.7-9.7 1-15.5 1.1-21.5 1.7-29.5 2.1-30.2.2-.4.1-.9-.4-1.2-.5-.3-3.2 10.2-6.1 23.2z"/></svg>